<svg width="545" height="616" viewBox="0 0 545 616" fill="none" xmlns="http://www.w3.org/2000/svg">
<mask id="path-1-outside-1_122_180" maskUnits="userSpaceOnUse" x="0" y="0" width="545" height="296" fill="black">
<rect fill="white" width="545" height="296"/>
<path d="M517 267.5C517 203.981 491.24 143.063 445.388 98.1479C399.535 53.233 337.345 28 272.5 28C207.655 28 145.465 53.233 99.6124 98.1479C53.7598 143.063 28 203.981 28 267.5L272.5 267.5H517Z"/>
</mask>
<path d="M517 267.5C517 203.981 491.24 143.063 445.388 98.1479C399.535 53.233 337.345 28 272.5 28C207.655 28 145.465 53.233 99.6124 98.1479C53.7598 143.063 28 203.981 28 267.5L272.5 267.5H517Z" fill="#81B0CE"/>
<path d="M517 267.5C517 203.981 491.24 143.063 445.388 98.1479C399.535 53.233 337.345 28 272.5 28C207.655 28 145.465 53.233 99.6124 98.1479C53.7598 143.063 28 203.981 28 267.5L272.5 267.5H517Z" stroke="#453B17" stroke-width="56" mask="url(#path-1-outside-1_122_180)"/>
<rect x="14" y="274" width="517" height="141" fill="#A38070" stroke="#453B17" stroke-width="28"/>
<path d="M531 412V426C531 523.202 452.202 602 355 602H190C92.7979 602 14 523.202 14 426V412H531Z" fill="#3A5575" stroke="#453B17" stroke-width="28"/>
<circle cx="374" cy="141" r="28" fill="white"/>
</svg>
